<?xml version="1.0" encoding="iso-8859-1"?>
<!-- Generator: Adobe Illustrator 16.0.0, SVG Export Plug-In . SVG Version: 6.00 Build 0)  -->
<!DOCTYPE svg PUBLIC "-//W3C//DTD SVG 1.1//EN" "http://www.w3.org/Graphics/SVG/1.1/DTD/svg11.dtd">
<svg version="1.1" id="Capa_1" xmlns="http://www.w3.org/2000/svg" xmlns:xlink="http://www.w3.org/1999/xlink" x="0px" y="0px"
	 width="107.167px" height="107.167px" viewBox="0 0 107.167 107.167" style="enable-background:new 0 0 107.167 107.167;"
	 xml:space="preserve">
<g>
	<g>
		<path d="M40.127,8.2l10.818,5.406c1.275,0.641,3.359,0.641,4.632,0L66.395,8.2c1.277-0.634,1.277-1.679,0-2.317L55.577,0.479
			c-1.271-0.639-3.359-0.639-4.63,0l-10.82,5.404C38.852,6.521,38.852,7.568,40.127,8.2z"/>
		<path d="M57.298,16.786l10.816,5.411c1.272,0.632,3.36,0.632,4.635,0l10.815-5.411c1.274-0.636,1.274-1.679,0-2.317L72.749,9.061
			c-1.274-0.634-3.362-0.634-4.635,0l-10.816,5.408C56.022,15.107,56.022,16.15,57.298,16.786z"/>
		<path d="M66.395,23.05l-10.817-5.406c-1.271-0.636-3.359-0.636-4.63,0L40.13,23.05c-1.276,0.636-1.276,1.683,0,2.315l10.816,5.411
			c1.275,0.639,3.359,0.639,4.63,0l10.817-5.411C67.672,24.733,67.672,23.687,66.395,23.05z"/>
		<path d="M34.052,58.817l-10.437-5.26c-1.247-0.621-2.149,0.15-2.149,1.708v13.239c0,1.561,1.025,3.352,2.273,3.963l10.305,5.267
			c1.245,0.62,2.021-0.15,2.021-1.711V62.779C36.065,61.22,35.294,59.438,34.052,58.817z"/>
		<path d="M49.122,31.639l-10.763-5.406c-1.275-0.637-3.335-0.637-4.611,0l-10.989,5.406c-0.904,0.454-1.292,1.4-1.292,2.342
			c0,4.417,0,8.828,0,13.244c0,1.56,1.204,3.344,2.445,3.964l10.219,5.258c1.248,0.623,1.935-0.148,1.935-1.704V41.855
			c0-0.926,0.651-1.857,1.542-2.299c3.734-1.866,7.674-3.732,11.41-5.596C50.29,33.322,50.398,32.275,49.122,31.639z"/>
		<path d="M51.225,34.709c-3.565,1.834-6.987,3.666-10.551,5.495c-0.869,0.442-1.332,1.576-1.332,2.552v13.438
			c0,1.592,0.837,3.4,2.067,4.03c2.294,1.175,6.781,3.26,9.567,4.542c1.538,0.707,3.306,0.707,4.841-0.005
			c3.149-1.453,8.465-3.917,10.271-4.817c1.245-0.621,2.092-2.404,2.092-3.969V42.738c0-0.963-0.468-2.076-1.346-2.516
			c-1.841-0.919-3.647-1.841-5.45-2.76c-0.021,0.007-0.045,0.014-0.063,0.023l-5.456-2.774
			C54.607,34.068,52.488,34.068,51.225,34.709z"/>
		<path d="M34.052,79.84l-10.437-5.265c-1.247-0.616-2.149,0.15-2.149,1.711v13.243c0,1.561,1.025,3.347,2.273,3.963l10.305,5.26
			c1.245,0.623,2.021-0.148,2.021-1.704V83.804C36.065,82.237,35.294,80.46,34.052,79.84z"/>
		<path d="M31.908,23.053l-10.743-5.409c-1.275-0.636-3.321-0.636-4.6,0L5.41,23.05c-0.905,0.454-1.462,1.405-1.462,2.35
			c0,4.412,0,8.821,0,13.239c0,1.565,1.378,3.344,2.624,3.964l10.135,5.265c1.241,0.616,1.841-0.15,1.841-1.715V33.27
			c0-0.926,0.827-1.853,1.716-2.299c3.733-1.866,7.765-3.732,11.494-5.603C33.034,24.736,33.183,23.689,31.908,23.053z"/>
		<path d="M16.806,49.967l-10.574-5.26c-1.246-0.621-2.285,0.151-2.285,1.711v13.237c0,1.561,1.299,3.347,2.543,3.97l10.172,5.26
			c1.243,0.62,1.883-0.148,1.883-1.711V53.932C18.547,52.376,18.047,50.587,16.806,49.967z"/>
		<path d="M16.806,70.989L6.232,65.725c-1.246-0.616-2.285,0.15-2.285,1.711v13.243c0,1.561,1.299,3.347,2.543,3.963l10.172,5.262
			c1.243,0.621,1.883-0.146,1.883-1.71V74.954C18.547,73.387,18.047,71.605,16.806,70.989z"/>
		<path d="M22.959,16.784l10.817,5.411c1.275,0.632,3.361,0.632,4.634,0l10.817-5.411c1.276-0.637,1.276-1.679,0-2.317L38.41,9.058
			c-1.273-0.636-3.359-0.636-4.634,0l-10.817,5.409C21.683,15.105,21.683,16.147,22.959,16.784z"/>
		<path d="M66.239,62.043c0,0-6.517,3.246-10.309,5.068c-1.62,0.778-3.519,0.76-5.122-0.053l-9.878-5.014
			c-1.245-0.618-2.275,0.153-2.275,1.709c-0.009,4.423-0.009,8.816-0.009,13.243c0,1.561,1.016,3.347,2.258,3.97l10.285,5.032
			c1.623,0.796,3.524,0.786,5.138-0.03l9.943-5.005c1.238-0.625,2.258-2.408,2.258-3.969c0-4.428,0-8.82-0.009-13.244
			C68.516,62.195,67.484,61.425,66.239,62.043z"/>
		<path d="M83.553,53.558l-10.438,5.26c-1.241,0.62-2.012,2.402-2.012,3.962v13.244c0,1.561,0.775,2.331,2.021,1.711l10.306-5.267
			c1.245-0.611,2.271-2.4,2.271-3.961V55.268C85.701,53.708,84.798,52.937,83.553,53.558z"/>
		<path d="M84.41,31.639l-12.094-5.655c-1.26-0.647-2.85-0.837-4.106-0.191l-10.728,5.593c-1.26,0.643-1.282,1.756-0.014,2.404
			c2.838,1.458,10.912,5.18,12.09,5.769c0.892,0.443,1.542,1.374,1.542,2.299v12.889c0,1.556,0.687,2.326,1.934,1.703l10.22-5.258
			c1.243-0.623,2.447-2.406,2.447-3.966V33.981C85.701,33.039,85.313,32.092,84.41,31.639z"/>
		<path d="M83.553,74.575L73.114,79.84c-1.241,0.62-2.012,2.397-2.012,3.962v13.244c0,1.556,0.775,2.326,2.021,1.704l10.306-5.261
			c1.245-0.615,2.271-2.399,2.271-3.96V76.286C85.701,74.726,84.798,73.959,83.553,74.575z"/>
		<path d="M101.08,22.772l-11.031-5.488c-1.259-0.646-3.494-0.646-4.754,0l-10.28,5.23c-1.257,0.648-1.373,1.852-0.119,2.496
			c3.495,1.797,11.531,5.719,12.01,5.956c0.89,0.447,1.716,1.374,1.716,2.299v12.884c0,1.564,0.6,2.331,1.841,1.715l10.135-5.267
			c1.245-0.618,2.623-2.397,2.623-3.962V25.395C103.22,25.06,102.928,23.598,101.08,22.772z"/>
		<path d="M100.935,44.707l-10.573,5.26c-1.24,0.621-1.74,2.409-1.74,3.965v13.241c0,1.562,0.639,2.331,1.884,1.711l10.172-5.26
			c1.243-0.625,2.543-2.409,2.543-3.97V46.417C103.22,44.857,102.18,44.086,100.935,44.707z"/>
		<path d="M100.935,65.725l-10.573,5.265c-1.24,0.616-1.74,2.397-1.74,3.962V88.19c0,1.567,0.639,2.331,1.884,1.711l10.172-5.263
			c1.243-0.618,2.543-2.401,2.543-3.962V67.433C103.22,65.875,102.18,65.108,100.935,65.725z"/>
		<path d="M66.239,83.062c0,0-6.195,3.164-9.834,5.017c-1.62,0.825-3.541,0.839-5.173,0.039l-10.303-5.056
			c-1.246-0.62-2.275,0.151-2.275,1.711c-0.009,4.421-0.009,8.81-0.009,13.239c0,1.565,1.014,3.349,2.256,3.97l10.754,4.701
			c1.528,0.668,3.269,0.643,4.781-0.066l9.831-4.633c1.243-0.623,2.259-2.404,2.259-3.969c0-4.431,0-8.819-0.01-13.239
			C68.516,83.214,67.484,82.442,66.239,83.062z"/>
	</g>
</g>
<g>
</g>
<g>
</g>
<g>
</g>
<g>
</g>
<g>
</g>
<g>
</g>
<g>
</g>
<g>
</g>
<g>
</g>
<g>
</g>
<g>
</g>
<g>
</g>
<g>
</g>
<g>
</g>
<g>
</g>
</svg>
