<?xml version="1.0" encoding="iso-8859-1"?>
<!-- Generator: Adobe Illustrator 16.0.0, SVG Export Plug-In . SVG Version: 6.00 Build 0)  -->
<!DOCTYPE svg PUBLIC "-//W3C//DTD SVG 1.1//EN" "http://www.w3.org/Graphics/SVG/1.1/DTD/svg11.dtd">
<svg version="1.1" id="Capa_1" xmlns="http://www.w3.org/2000/svg" xmlns:xlink="http://www.w3.org/1999/xlink" x="0px" y="0px"
	 width="181.171px" height="181.171px" viewBox="0 0 181.171 181.171" style="enable-background:new 0 0 181.171 181.171;"
	 xml:space="preserve">
<g>
	<g>
		<path d="M159.697,65.066c-1.431-3.863-3.003-7.719-5.143-11.411c-2.14-3.697-4.675-7.001-7.317-10.182l4.989-21.878L119.492,2.687
			l-16.574,15.397c-8.142-1.386-16.446-1.495-24.754-0.08L61.676,2.681L28.925,21.595l5.03,21.947
			c-5.382,6.457-9.437,13.728-12.306,21.456L0.006,71.656L0,109.5l21.462,6.585c1.439,3.889,3.014,7.743,5.163,11.442
			c2.131,3.689,4.667,6.987,7.312,10.167l-5.006,21.864l32.751,18.932l16.583-15.403c8.154,1.384,16.477,1.495,24.761,0.083
			l16.479,15.314l32.77-18.914l-5.036-21.93c5.385-6.483,9.445-13.754,12.318-21.485l21.615-6.667v-37.82L159.697,65.066z
			 M119.327,140.384c-27.503,15.876-62.657,6.46-78.528-21.048c-15.888-27.497-6.463-62.654,21.034-78.531
			c27.502-15.882,62.66-6.458,78.536,21.045C156.257,89.356,146.83,124.502,119.327,140.384z"/>
		<path d="M90.577,75.161c-4.545-13.127-32.932-19.931-34.998,3.147c-2.663,29.69,34.998,47.08,34.998,47.08
			s37.675-17.39,35.009-47.089C123.535,55.23,95.134,62.028,90.577,75.161z"/>
	</g>
</g>
<g>
</g>
<g>
</g>
<g>
</g>
<g>
</g>
<g>
</g>
<g>
</g>
<g>
</g>
<g>
</g>
<g>
</g>
<g>
</g>
<g>
</g>
<g>
</g>
<g>
</g>
<g>
</g>
<g>
</g>
</svg>
