<?xml version="1.0" encoding="iso-8859-1"?>
<!-- Generator: Adobe Illustrator 16.0.0, SVG Export Plug-In . SVG Version: 6.00 Build 0)  -->
<!DOCTYPE svg PUBLIC "-//W3C//DTD SVG 1.1//EN" "http://www.w3.org/Graphics/SVG/1.1/DTD/svg11.dtd">
<svg version="1.1" id="Capa_1" xmlns="http://www.w3.org/2000/svg" xmlns:xlink="http://www.w3.org/1999/xlink" x="0px" y="0px"
	 width="58.988px" height="58.988px" viewBox="0 0 58.988 58.988" style="enable-background:new 0 0 58.988 58.988;"
	 xml:space="preserve">
<g>
	<g>
		<path d="M58.393,13.79c-0.153-0.504-0.561-0.891-1.071-1.018c-0.511-0.13-1.052,0.022-1.424,0.395l-2.042,2.042
			c-0.06,0.059-0.112,0.123-0.162,0.19c-0.243,0.344-0.495,0.645-0.77,0.918l-1.414,1.414c-1.369,1.369-3.189,2.123-5.127,2.123
			c-1.937,0-3.757-0.754-5.126-2.123c-2.827-2.827-2.827-7.427,0-10.254l4.431-4.43c0.374-0.374,0.523-0.919,0.394-1.432
			c-0.131-0.514-0.523-0.92-1.031-1.068C43.81,0.184,42.526,0,41.233,0c-3.599,0-6.979,1.399-9.521,3.941l-3.535,3.535
			c-4.188,4.188-5.115,10.671-2.399,15.834L2.049,47.038c-2.729,2.729-2.729,7.171,0.001,9.899c1.321,1.322,3.079,2.051,4.949,2.051
			s3.628-0.729,4.95-2.051l23.727-23.726c1.932,1.019,4.084,1.552,6.293,1.552l0,0c3.604,0,6.992-1.403,9.541-3.951l3.535-3.536
			C58.571,23.749,59.854,18.581,58.393,13.79z M52.924,25.155l-3.535,3.536c-1.981,1.981-4.617,3.073-7.42,3.073
			c-2.041,0-4.018-0.584-5.718-1.688c-0.595-0.387-1.378-0.304-1.878,0.196L9.828,54.817c-1.513,1.51-4.146,1.51-5.657,0
			c-1.561-1.561-1.561-4.099,0-5.658l24.545-24.545c0.501-0.501,0.583-1.284,0.197-1.878c-2.684-4.127-2.102-9.652,1.384-13.138
			l3.535-3.535C35.807,4.088,38.436,3,41.231,3c0.086,0,0.17,0.001,0.256,0.003l-2.353,2.353c-3.997,3.996-3.997,10.499,0,14.496
			c1.936,1.936,4.51,3.002,7.247,3.002c2.738,0,5.312-1.066,7.248-3.002l1.416-1.415c0.327-0.328,0.64-0.69,0.932-1.08
			C56.088,20.235,55.013,23.066,52.924,25.155z"/>
		<circle cx="7.581" cy="51.407" r="1.875"/>
	</g>
</g>
<g>
</g>
<g>
</g>
<g>
</g>
<g>
</g>
<g>
</g>
<g>
</g>
<g>
</g>
<g>
</g>
<g>
</g>
<g>
</g>
<g>
</g>
<g>
</g>
<g>
</g>
<g>
</g>
<g>
</g>
</svg>
