<?xml version="1.0" encoding="iso-8859-1"?>
<!-- Generator: Adobe Illustrator 16.0.0, SVG Export Plug-In . SVG Version: 6.00 Build 0)  -->
<!DOCTYPE svg PUBLIC "-//W3C//DTD SVG 1.1//EN" "http://www.w3.org/Graphics/SVG/1.1/DTD/svg11.dtd">
<svg version="1.1" id="Capa_1" xmlns="http://www.w3.org/2000/svg" xmlns:xlink="http://www.w3.org/1999/xlink" x="0px" y="0px"
	 width="413.019px" height="413.019px" viewBox="0 0 413.019 413.019" style="enable-background:new 0 0 413.019 413.019;"
	 xml:space="preserve">
<g>
	<path d="M155.227,156.855h29.733c-30.017,26.103-96.167,104.418-27.508,247.176c1.678,3.049,2.714,7.292,2.058,8.394
		c-0.057,0.101-0.811,0.589-3.002,0.589c-2.184,0-4.995-0.473-8.381-1.397C138.269,395.781,62.651,266.114,155.227,156.855z"/>
	<path d="M136.634,55.883c-0.017,0.559-0.339,13.874,11.244,25.866c11.966,12.392,31.694,18.669,58.63,18.669
		c26.936,0,46.662-6.278,58.631-18.669c11.58-11.987,11.266-25.303,11.25-25.678c0-30.775-19.617-38.11-27.455-39.811L239.99,0
		c48.683,4.047,49.428,40.321,49.838,60.334c0.551,27.047-34.121,43.101-34.469,43.255c-1.919,0.871-3.16,2.79-3.16,4.898v12.33
		h-91.381v-12.33c0-2.113-1.236-4.027-3.16-4.898c-0.349-0.155-35.021-16.208-34.468-43.255C123.594,40.316,124.324,4.042,173.025,0
		l-8.944,16.261C156.249,17.948,136.629,25.26,136.634,55.883z"/>
	<path d="M264.882,411.623c-3.381,0.924-6.188,1.396-8.373,1.396c-2.199,0-2.95-0.493-3.007-0.594
		c-0.657-1.092,0.382-5.332,2.194-8.651c68.54-142.531,2.382-220.811-27.64-246.914h29.732
		C350.37,266.114,274.75,395.781,264.882,411.623z"/>
</g>
<g>
</g>
<g>
</g>
<g>
</g>
<g>
</g>
<g>
</g>
<g>
</g>
<g>
</g>
<g>
</g>
<g>
</g>
<g>
</g>
<g>
</g>
<g>
</g>
<g>
</g>
<g>
</g>
<g>
</g>
</svg>
