<?xml version="1.0" encoding="UTF-8" standalone="no"?>
<svg
   xmlns:dc="http://purl.org/dc/elements/1.1/"
   xmlns:cc="http://creativecommons.org/ns#"
   xmlns:rdf="http://www.w3.org/1999/02/22-rdf-syntax-ns#"
   xmlns:svg="http://www.w3.org/2000/svg"
   xmlns="http://www.w3.org/2000/svg"
   xml:space="preserve"
   style="enable-background:new 0 0 467.276 467.276;"
   viewBox="0 0 467.276 467.276"
   height="467.276px"
   width="467.276px"
   y="0px"
   x="0px"
   id="Capa_1"
   version="1.1"><metadata
     id="metadata4810"><rdf:RDF><cc:Work
         rdf:about=""><dc:format>image/svg+xml</dc:format><dc:type
           rdf:resource="http://purl.org/dc/dcmitype/StillImage" /><dc:title></dc:title></cc:Work></rdf:RDF></metadata><defs
     id="defs4808" /><g
     id="g4764"><g
       style="fill:#000000"
       id="g4766" /><flowRoot
       style="fill:black;stroke:none;stroke-opacity:1;stroke-width:1px;stroke-linejoin:miter;stroke-linecap:butt;fill-opacity:1;font-family:sans-serif;font-style:normal;font-weight:normal;font-size:90px;line-height:125%;letter-spacing:0px;word-spacing:0px;"
       id="flowRoot4814"
       xml:space="preserve"><flowRegion
         id="flowRegion4816"><rect
           style="font-size:90px"
           y="18.986139"
           x="11.336065"
           height="442.93741"
           width="911.34277"
           id="rect4818" /></flowRegion><flowPara
         id="flowPara4820"></flowPara></flowRoot><g
       id="flowRoot4831"
       style="font-style:normal;font-variant:normal;font-weight:normal;font-stretch:normal;font-size:40px;line-height:125%;font-family:'Segoe Print';-inkscape-font-specification:'Segoe Print';letter-spacing:0px;word-spacing:0px;fill:#000000;fill-opacity:1;stroke:none;stroke-width:1px;stroke-linecap:butt;stroke-linejoin:miter;stroke-opacity:1"
       transform="matrix(8.33194,0,0,13.299821,946.97541,3913.3815)"><path
         id="path4840"
         style="font-style:normal;font-variant:normal;font-weight:normal;font-stretch:normal;font-family:'Segoe Print';-inkscape-font-specification:'Segoe Print'"
         d="m -99.396484,-266.20215 0.07813,1.15234 q 0,1.01563 -2.558591,1.01563 -0.27344,0 -0.78125,-0.66406 -0.46875,-0.625 -0.70313,-0.54688 -0.21484,0 -2.14844,0.52735 -1.91406,0.52734 -2.28515,0.68359 -2.36328,0.76172 -3.32031,0.76172 -0.89844,0 -1.44532,-0.60547 -0.52734,-0.60547 -0.52734,-1.17188 0,-1.03515 1.75781,-1.5039 1.77735,-0.48828 3.08594,-0.72266 4.19922,-0.85937 4.92187,-1.28906 0.21485,-3.73047 0.87891,-8.55469 l 1.11328,-8.24219 q -1.13281,0 -3.14453,1.36719 -3.57422,2.34375 -6.28906,2.34375 -0.87891,0 -0.87891,-1.23047 0,-0.78125 0.29297,-1.03515 0.3125,-0.25391 2.73438,-1.28907 2.42187,-1.05468 6.09375,-3.24218 3.671871,-2.1875 4.003902,-2.1875 0.625,0 1.074219,0.85937 0.449218,0.85938 0.449218,1.50391 0,0.54687 -0.566406,1.11328 -1.914062,8.35937 -2.226562,12.8125 -0.312501,4.43359 -0.09766,5.17578 1.484375,-0.0586 4.277344,-0.83984 3.847656,-1.03516 6.210938,-1.03516 0.46875,0.89844 0.46875,1.52344 0,0.66406 -0.195313,0.85937 -0.195312,0.19532 -1.289062,0.56641 -1.09375,0.37109 -3.769532,0.72266 -3.925781,0.54687 -5.214843,1.17187 z" /><path
         id="path4842"
         style="font-style:normal;font-variant:normal;font-weight:normal;font-stretch:normal;font-family:'Segoe Print';-inkscape-font-specification:'Segoe Print'"
         d="m -79.708984,-263.2334 q -3.125,0 -4.824219,-2.12891 -1.699219,-2.1289 -1.699219,-5.3125 0,-3.88671 2.382813,-8.57421 2.382812,-4.6875 6.933593,-7.69532 4.570313,-3.00781 8.046875,-3.00781 2.539063,0 5.46875,1.67969 2.929688,1.67969 4.101563,3.76953 1.171875,2.08984 1.171875,5.54687 0,5.17579 -6.757813,10.44922 -6.738281,5.27344 -14.824218,5.27344 z m 13.75,-22.92969 q -0.449219,0.56641 -1.40625,0.56641 -0.136719,0 -0.742188,-0.42969 -0.625,-0.44922 -1.132812,-0.44922 -2.402344,0 -3.808594,0.76172 -1.40625,0.74219 -3.867188,3.10547 -2.441406,2.36328 -3.984375,5.19531 -1.542968,2.8125 -1.542968,5.72266 0,3.45703 1.621093,4.33594 1.621094,0.8789 3.535157,0.8789 2.421875,0 6.054687,-1.93359 3.632813,-1.93359 6.71875,-4.96094 3.085938,-3.04687 3.085938,-4.96094 0,-1.09375 -0.351563,-2.53906 -0.351562,-1.46484 -0.78125,-2.01172 -0.410156,-0.54687 -1.5625,-1.75781 -1.132812,-1.21094 -1.835937,-1.52344 z" /></g></g><g
     id="g4776" /><g
     id="g4778" /><g
     id="g4780" /><g
     id="g4782" /><g
     id="g4784" /><g
     id="g4786" /><g
     id="g4788" /><g
     id="g4790" /><g
     id="g4792" /><g
     id="g4794" /><g
     id="g4796" /><g
     id="g4798" /><g
     id="g4800" /><g
     id="g4802" /><g
     id="g4804" /></svg>