<?xml version="1.0" encoding="UTF-8" standalone="no"?>
<svg
   xmlns:dc="http://purl.org/dc/elements/1.1/"
   xmlns:cc="http://creativecommons.org/ns#"
   xmlns:rdf="http://www.w3.org/1999/02/22-rdf-syntax-ns#"
   xmlns:svg="http://www.w3.org/2000/svg"
   xmlns="http://www.w3.org/2000/svg"
   xml:space="preserve"
   style="enable-background:new 0 0 467.276 467.276;"
   viewBox="0 0 467.276 467.276"
   height="467.276px"
   width="467.276px"
   y="0px"
   x="0px"
   id="Capa_1"
   version="1.1"><metadata
     id="metadata4810"><rdf:RDF><cc:Work
         rdf:about=""><dc:format>image/svg+xml</dc:format><dc:type
           rdf:resource="http://purl.org/dc/dcmitype/StillImage" /><dc:title></dc:title></cc:Work></rdf:RDF></metadata><defs
     id="defs4808" /><g
     id="g4764"><g
       style="fill:#000000"
       id="g4766"><path
         style="fill:#000000"
         id="path4768"
         d="M 379.281,51.144 C 348.254,24.297 309.565,13.46 269.577,8.672 163.068,-25.3 68.062,44.959 26.578,142.38 c -44.714,105.002 -23.44,222.217 73.516,287.698 98.985,66.846 235.019,39.369 310.95,-48.627 82.979,-96.177 62.495,-248.732 -31.763,-330.307 z M 191.89704,453.49282 C 135.74504,445.49982 73.34011,400.05992 44.88611,350.79792 19.44811,306.75092 16.691136,235.75505 28.094136,187.64605 45.623136,113.68605 114.502,34.876 183.822,18.9 c 0.104,0.005 0.19,0.035 0.295,0.035 34.84992,-5.200949 53.27198,-4.167958 77.046,3.567 2.438,0.764 20.36082,9.891009 22.81282,10.788009 4.062,1.48 16.81681,3.800403 5.56719,-8.715409 27.781,4.677 61.00238,22.62651 82.49099,41.8104 44.13905,39.405 86.21878,98.66117 77.84184,200.49583 -2.712,117.308 -146.8608,202.42499 -257.9788,186.61199 z" /><path
         style="fill:#000000"
         id="path4770"
         d="m 169.276,195.08314 c 17.34005,0 13.38008,-20.26413 0,-19.27414 -16.34706,-1.98098 -23.277,19.27414 0,19.27414 z" /><path
         style="fill:#000000"
         id="path4772"
         d="m 292.84301,212.72501 c 16.82606,-3.94382 2.31529,-14.52133 2.31529,-14.52133 -8.13278,-1.26846 -18.99503,18.43085 -2.31529,14.52133 z" /><path
         style="fill:#000000"
         id="path4774"
         d="m 302.731,296.966 c -43.25,42.975 -115.046,38.689 -158.352,-1.808 -16.98,-15.879 -26.566,-12.402 -9.529,3.532 57.625,53.893 136.062,58.787 193.407,1.802 16.535,-16.427 -9.003,-19.948 -25.526,-3.526 z" /><path
         d="m 169.276,195.08314 c 17.34005,0 13.38008,-20.26413 0,-19.27414 -16.34706,-1.98098 -23.277,19.27414 0,19.27414 z"
         id="path4812"
         style="fill:#000000" /></g></g><g
     id="g4776" /><g
     id="g4778" /><g
     id="g4780" /><g
     id="g4782" /><g
     id="g4784" /><g
     id="g4786" /><g
     id="g4788" /><g
     id="g4790" /><g
     id="g4792" /><g
     id="g4794" /><g
     id="g4796" /><g
     id="g4798" /><g
     id="g4800" /><g
     id="g4802" /><g
     id="g4804" /></svg>