<?xml version="1.0" encoding="iso-8859-1"?>
<!-- Generator: Adobe Illustrator 19.0.0, SVG Export Plug-In . SVG Version: 6.00 Build 0)  -->
<svg version="1.1" id="Capa_1" xmlns="http://www.w3.org/2000/svg" xmlns:xlink="http://www.w3.org/1999/xlink" x="0px" y="0px"
	 viewBox="0 0 62.053 62.053" style="enable-background:new 0 0 62.053 62.053;" xml:space="preserve">
<path style="fill:#221E1F;" d="M60.151,15.277c-1.225-1.225-2.854-1.899-4.585-1.899c-1.711,0-3.319,0.66-4.538,1.856
	c-0.001,0.001-0.003,0.001-0.005,0.003L30.119,33.823l1.669-5.894l15.027-16.901c0.001-0.002,0.002-0.004,0.003-0.005
	c2.483-2.532,2.47-6.611-0.043-9.124C45.549,0.674,43.921,0,42.189,0s-3.36,0.674-4.586,1.899c-2.528,2.528-2.528,6.643,0,9.171
	c1.226,1.225,2.854,1.899,4.586,1.899c0.079,0,0.156-0.009,0.234-0.011L0.254,60.385c-0.353,0.396-0.334,0.997,0.04,1.372
	c0.384,0.393,0.97,0.382,1.371,0.041l47.428-42.169c-0.003,0.078-0.011,0.155-0.011,0.234c0,1.732,0.674,3.361,1.899,4.585
	c1.225,1.225,2.854,1.899,4.586,1.899c1.731,0,3.36-0.674,4.585-1.899c1.226-1.225,1.9-2.854,1.9-4.585
	C62.051,18.131,61.376,16.502,60.151,15.277z M39.016,9.657c-1.748-1.749-1.748-4.594,0-6.343c0.848-0.847,1.974-1.313,3.172-1.313
	s2.324,0.466,3.172,1.313c1.748,1.749,1.748,4.594,0,6.343c-0.848,0.847-1.974,1.313-3.172,1.313S39.864,10.504,39.016,9.657z
	 M30.261,29.645l-1.533,5.413L13.067,48.982L30.261,29.645z M58.737,23.035c-0.847,0.847-1.974,1.313-3.171,1.313
	c-1.198,0-2.325-0.466-3.172-1.313c-0.848-0.847-1.313-1.974-1.313-3.171c0-1.198,0.466-2.325,1.313-3.172s1.974-1.313,3.172-1.313
	c1.197,0,2.324,0.466,3.171,1.313c0.848,0.847,1.314,1.974,1.314,3.172C60.051,21.061,59.584,22.187,58.737,23.035z"/>
<g>
</g>
<g>
</g>
<g>
</g>
<g>
</g>
<g>
</g>
<g>
</g>
<g>
</g>
<g>
</g>
<g>
</g>
<g>
</g>
<g>
</g>
<g>
</g>
<g>
</g>
<g>
</g>
<g>
</g>
</svg>
