<?xml version="1.0" encoding="iso-8859-1"?>
<!-- Generator: Adobe Illustrator 18.0.0, SVG Export Plug-In . SVG Version: 6.00 Build 0)  -->
<!DOCTYPE svg PUBLIC "-//W3C//DTD SVG 1.1//EN" "http://www.w3.org/Graphics/SVG/1.1/DTD/svg11.dtd">
<svg version="1.1" id="Capa_1" xmlns="http://www.w3.org/2000/svg" xmlns:xlink="http://www.w3.org/1999/xlink" x="0px" y="0px"
	 viewBox="0 0 64.625 64.625" style="enable-background:new 0 0 64.625 64.625;" xml:space="preserve">
<path style="fill:#231F20;" d="M22.031,0c-4.239,0-7.688,3.449-7.688,7.688c0,3.899,2.921,7.122,6.688,7.615v3.029
	c-0.882,0.386-1.5,1.264-1.5,2.289v41.504c0,1.381,1.119,2.5,2.5,2.5s2.5-1.119,2.5-2.5V20.621c0-1.025-0.618-1.903-1.5-2.289
	v-3.029c3.767-0.493,6.688-3.716,6.688-7.615C29.719,3.449,26.27,0,22.031,0z M22.031,13.375c-3.136,0-5.688-2.551-5.688-5.688
	S18.895,2,22.031,2s5.688,2.551,5.688,5.688S25.167,13.375,22.031,13.375z M24.809,10.52c0.098,0.098,0.098,0.256,0,0.354
	c-0.049,0.049-0.113,0.073-0.177,0.073s-0.128-0.024-0.177-0.073l-5.208-5.208c-0.098-0.098-0.098-0.256,0-0.354
	s0.256-0.098,0.354,0L24.809,10.52z M25.625,8.705c0.098,0.098,0.098,0.256,0,0.354c-0.049,0.049-0.113,0.073-0.177,0.073
	s-0.128-0.024-0.177-0.073l-4.203-4.203c-0.098-0.098-0.098-0.256,0-0.354s0.256-0.098,0.354,0L25.625,8.705z M21.422,10.095
	c0.098,0.098,0.098,0.256,0,0.354c-0.049,0.049-0.113,0.073-0.177,0.073s-0.128-0.024-0.177-0.073l-2.63-2.63
	c-0.098-0.098-0.098-0.256,0-0.354s0.256-0.098,0.354,0L21.422,10.095z M44.031,6.448c0,2.131,2.088,2.449,3.333,2.449
	c0.552,0,1,0.448,1,1v8.435c0.882,0.386,1.5,1.264,1.5,2.289v41.504c0,1.381-1.119,2.5-2.5,2.5s-2.5-1.119-2.5-2.5V20.621
	c0-1.025,0.618-1.903,1.5-2.289v-7.494c-2.664-0.326-4.333-1.977-4.333-4.39c0-2.567,2.647-3.938,5.207-5.264
	c0.521-0.27,1.046-0.542,1.555-0.826c0.481-0.269,1.091-0.097,1.361,0.385s0.097,1.091-0.385,1.361
	c-0.527,0.294-1.072,0.577-1.611,0.856C46.036,4.059,44.031,5.097,44.031,6.448z"/>
<g>
</g>
<g>
</g>
<g>
</g>
<g>
</g>
<g>
</g>
<g>
</g>
<g>
</g>
<g>
</g>
<g>
</g>
<g>
</g>
<g>
</g>
<g>
</g>
<g>
</g>
<g>
</g>
<g>
</g>
</svg>
