<?xml version="1.0" encoding="UTF-8" standalone="no"?>
<svg
   xmlns:dc="http://purl.org/dc/elements/1.1/"
   xmlns:cc="http://creativecommons.org/ns#"
   xmlns:rdf="http://www.w3.org/1999/02/22-rdf-syntax-ns#"
   xmlns:svg="http://www.w3.org/2000/svg"
   xmlns="http://www.w3.org/2000/svg"
   xml:space="preserve"
   viewBox="0 0 25 9.0000002"
   height="9"
   width="25"
   y="0px"
   x="0px"
   id="Capa_1"
   version="1.1"><metadata
     id="metadata4928"><rdf:RDF><cc:Work
         rdf:about=""><dc:format>image/svg+xml</dc:format><dc:type
           rdf:resource="http://purl.org/dc/dcmitype/StillImage" /><dc:title></dc:title></cc:Work></rdf:RDF></metadata><defs
     id="defs4926" /><g
     transform="translate(-17.928435,-19.179149)"
     id="g4894" /><g
     transform="translate(-17.928435,-19.179149)"
     id="g4896" /><g
     transform="translate(-17.928435,-19.179149)"
     id="g4898" /><g
     transform="translate(-17.928435,-19.179149)"
     id="g4900" /><g
     transform="translate(-17.928435,-19.179149)"
     id="g4902" /><g
     transform="translate(-17.928435,-19.179149)"
     id="g4904" /><g
     transform="translate(-17.928435,-19.179149)"
     id="g4906" /><g
     transform="translate(-17.928435,-19.179149)"
     id="g4908" /><g
     transform="translate(-17.928435,-19.179149)"
     id="g4910" /><g
     transform="translate(-17.928435,-19.179149)"
     id="g4912" /><g
     transform="translate(-17.928435,-19.179149)"
     id="g4914" /><g
     transform="translate(-17.928435,-19.179149)"
     id="g4916" /><g
     transform="translate(-17.928435,-19.179149)"
     id="g4918" /><g
     transform="translate(-17.928435,-19.179149)"
     id="g4920" /><g
     transform="translate(-17.928435,-19.179149)"
     id="g4922" /><path
     id="path4941"
     d="M 3.7111271,4.5380857 0,0.03848765 3.7500114,0.01124017 c 2.0625065,-0.0149869 5.4375061,-0.0149869 7.4999986,0 L 15,0.03848765 11.322385,4.5002406 C 9.2996968,6.9542053 7.5947039,8.9790251 7.5335119,8.9998396 7.4723198,9.0206542 5.7522463,7.0128651 3.7111272,4.5380857 Z"
     style="fill:#d8d8d8" /></svg>