<?xml version="1.0" encoding="UTF-8" standalone="no"?>
<svg
   xmlns:dc="http://purl.org/dc/elements/1.1/"
   xmlns:cc="http://creativecommons.org/ns#"
   xmlns:rdf="http://www.w3.org/1999/02/22-rdf-syntax-ns#"
   xmlns:svg="http://www.w3.org/2000/svg"
   xmlns="http://www.w3.org/2000/svg"
   xml:space="preserve"
   style="enable-background:new 0 0 830.046 830.045;"
   viewBox="0 0 830.046 830.045"
   height="830.045px"
   width="830.046px"
   y="0px"
   x="0px"
   id="Capa_1"
   version="1.1"><metadata
     id="metadata4928"><rdf:RDF><cc:Work
         rdf:about=""><dc:format>image/svg+xml</dc:format><dc:type
           rdf:resource="http://purl.org/dc/dcmitype/StillImage" /><dc:title></dc:title></cc:Work></rdf:RDF></metadata><defs
     id="defs4926" /><g
     style="fill:#aaeeff"
     id="g4890"><path
       style="fill:#aaeeff"
       id="path4892"
       d="M228.323,827.536c10,6.5,23.2-0.6,23.2-12.5V654.636c0-90.301,73.199-163.5,163.5-163.5l0,0   c90.3,0,163.5,73.199,163.5,163.5v160.399c0,11.9,13.3,19.101,23.199,12.5c92.7-60.7,154.101-165.3,154.601-284.3   c0.7-171.9,0.7-357.1-2.3-419.2c-6-126-174-150-234-99s-105,42-105,42s-45,9-105-42s-228-27-234,99c-3,62.1-3,247.3-2.3,419.2   C74.223,662.236,135.623,766.835,228.323,827.536z" /></g><g
     id="g4894" /><g
     id="g4896" /><g
     id="g4898" /><g
     id="g4900" /><g
     id="g4902" /><g
     id="g4904" /><g
     id="g4906" /><g
     id="g4908" /><g
     id="g4910" /><g
     id="g4912" /><g
     id="g4914" /><g
     id="g4916" /><g
     id="g4918" /><g
     id="g4920" /><g
     id="g4922" /></svg>